<?xml version="1.0" encoding="utf-8"?>
<!-- Generator: Adobe Illustrator 16.0.0, SVG Export Plug-In . SVG Version: 6.00 Build 0)  -->
<!DOCTYPE svg PUBLIC "-//W3C//DTD SVG 1.1//EN" "http://www.w3.org/Graphics/SVG/1.1/DTD/svg11.dtd">
<svg version="1.1" id="Layer_1" xmlns="http://www.w3.org/2000/svg" xmlns:xlink="http://www.w3.org/1999/xlink" x="0px" y="0px"
	 width="679.193px" height="98.43px" viewBox="0 0 679.193 98.43" enable-background="new 0 0 679.193 98.43" xml:space="preserve">
<g>
	<g>
		<g>
			<path d="M44.246,92.02c0,2.752-2.251,5.005-5.005,5.005H29.024c-2.754,0-5.005-2.253-5.005-5.005V23.226
				c0-2.754-2.252-5.006-5.006-5.006H5.002C2.252,18.22,0,15.967,0,13.214V6.338c0-2.754,2.252-5.005,5.002-5.005h58.193
				c2.751,0,5.005,2.251,5.005,5.005v6.876c0,2.753-2.254,5.006-5.005,5.006H49.252c-2.754,0-5.006,2.252-5.006,5.006V92.02z"/>
			<path d="M124.459,97.024c-2.754,0-5.627-2.163-6.385-4.811l-3.78-13.156c-0.762-2.646-3.638-4.811-6.389-4.811h-12.97
				c-2.752,0-5.631,2.164-6.398,4.807l-3.824,13.165c-0.768,2.643-3.646,4.806-6.397,4.806H67.838c-2.752,0-4.312-2.143-3.463-4.763
				l28.008-86.56c0.848-2.618,3.793-4.761,6.547-4.761h4.785c2.751,0,5.701,2.141,6.552,4.758l28.127,86.566
				c0.851,2.617-0.705,4.76-3.459,4.76H124.459z M101.395,59.429c6.645,0,9.643-6.902,8.307-10.669l-8.307-22.848l-8.098,22.848
				C91.996,52.536,94.751,59.429,101.395,59.429z"/>
			<path d="M583.387,97.024c-2.751,0-5.627-2.163-6.385-4.811l-3.781-13.156c-0.761-2.646-3.637-4.811-6.389-4.811h-12.967
				c-2.754,0-5.633,2.164-6.4,4.807l-3.822,13.165c-0.767,2.643-3.648,4.806-6.4,4.806h-10.475c-2.754,0-4.312-2.143-3.465-4.763
				l28.008-86.56c0.848-2.618,3.795-4.761,6.546-4.761h4.786c2.754,0,5.701,2.141,6.552,4.758l28.13,86.566
				c0.85,2.617-0.705,4.76-3.459,4.76H583.387z M560.322,59.429c6.645,0,9.643-6.902,8.307-10.669l-8.307-22.848l-8.099,22.848
				C550.924,52.536,553.678,59.429,560.322,59.429z"/>
			<path d="M212.43,31.179c0,4.188-0.634,8.205-1.898,12.043c-1.264,3.84-3.349,7.222-6.251,10.145
				c-2.9,2.925-6.719,5.26-11.454,7.004c-4.734,1.744-10.591,2.619-17.574,2.619l0,0c-2.555,0-4.646,2.251-4.646,5.005v5.166
				c0,2.754,0,7.259,0,10.012v8.847c0,2.752-2.251,5.005-5.005,5.005h-10.282c-2.751,0-5.003-2.253-5.003-5.005V6.338
				c0-2.754,2.252-5.005,5.003-5.005h16.566c22.559,0,29.102,5.399,32.002,7.952c2.902,2.552,5.053,5.672,6.447,9.36
				C211.73,22.333,212.43,26.512,212.43,31.179z M170.606,41.359c0,2.752,0.898,5.004,1.996,5.004c1.097,0,4.235-0.252,6.968-0.563
				c0,0,5.054-0.57,7.956-2.84c2.899-2.267,4.352-5.954,4.352-11.061c0-4.756-1.3-8.269-3.894-10.538
				c-2.596-2.268-6.665-3.402-12.206-3.402h-0.166c-2.755,0-5.006,2.252-5.006,5.004v3.208c0,2.754,0,6.118,0,7.477
				c0,1.361,0,4.727,0,7.479V41.359z"/>
			<path d="M335.613,92.02c0,2.752-2.252,5.005-5.003,5.005h-10.216c-2.752,0-5.006-2.253-5.006-5.005V23.226
				c0-2.754-2.255-5.006-5.006-5.006h-14.011c-2.751,0-5.006-2.253-5.006-5.006V6.338c0-2.754,2.255-5.005,5.006-5.005h58.192
				c2.754,0,5.005,2.251,5.005,5.005v6.876c0,2.753-2.251,5.006-5.005,5.006h-13.946c-2.751,0-5.005,2.252-5.005,5.006V92.02z"/>
			<path d="M399.004,60.304c-2.43,0-4.416,2.253-4.416,5.006v26.71c0,2.752-2.255,5.005-5.006,5.005H379.3
				c-2.751,0-5.005-2.253-5.005-5.005V6.338c0-2.754,2.254-5.005,5.005-5.005h16.174c13.562,0,26.318,2.367,32.165,7.102
				c5.848,4.735,8.771,11.922,8.771,21.566c0,3.272-0.438,6.239-1.309,8.901c-0.875,2.662-2.041,5.029-3.501,7.103
				c-1.463,2.072-3.144,3.884-5.041,5.431c-1.897,1.55-3.896,2.847-5.99,3.895c4.845,7.768,17.464,37.096,17.464,37.096
				c1.089,2.529-0.273,4.598-3.024,4.598h-12.506c-2.754,0-5.812-2.104-6.796-4.674l-10.493-27.372
				C404.229,62.407,401.434,60.304,399.004,60.304z M394.588,38.807c0,2.753,1.233,5.006,2.748,5.006c1.51,0,4.984-0.262,7.718-0.58
				c0,0,4.692-0.544,7.141-2.793c2.441-2.245,3.664-5.551,3.664-9.915c0-4.539-1.309-7.766-3.926-9.688
				c-2.62-1.921-6.677-2.879-12.177-2.879h-0.166c-2.751,0-5.002,2.252-5.002,5.004V38.807z"/>
			<path d="M513.84,92.02c0,2.752-2.252,5.005-5.004,5.005h-45.103c-2.751,0-5.005-2.253-5.005-5.005V6.338
				c0-2.754,2.254-5.005,5.005-5.005h45.103c2.752,0,5.004,2.251,5.004,5.005v6.614c0,2.753-2.252,5.006-5.004,5.006h-24.81
				c-2.755,0-5.006,2.252-5.006,5.004v11c0,2.754,2.251,5.006,5.006,5.006h22.386c2.754,0,5.006,2.253,5.006,5.005v6.615
				c0,2.752-2.252,5.005-5.006,5.005h-22.386c-2.755,0-5.006,2.252-5.006,5.006v14.666c0,2.752,2.251,5.005,5.006,5.005h24.81
				c2.752,0,5.004,2.252,5.004,5.006V92.02z"/>
			<path d="M642.043,63.657c-2.379,0-5.481-1.932-6.9-4.291l-6.861-11.435c-1.418-2.36-2.575-2.039-2.575,0.713V92.02
				c0,2.752-2.251,5.005-5.005,5.005h-8.12c-2.754,0-5.005-2.253-5.005-5.005V6.338c0-2.754,2.251-5.005,5.005-5.005h7.599
				c2.752,0,6.029,2.006,7.281,4.458l13.202,25.887c1.252,2.452,3.34,2.474,4.64,0.046l13.916-25.979
				c1.3-2.428,4.613-4.412,7.367-4.412h7.602c2.752,0,5.006,2.251,5.006,5.005V92.02c0,2.752-2.254,5.005-5.006,5.005h-8.907
				c-2.751,0-5.003-2.253-5.003-5.005V48.774c0-2.751-1.291-3.158-2.869-0.904l-8.174,11.688
				C647.655,61.812,644.42,63.657,642.043,63.657z"/>
			<path d="M279.934,84.007c-7.45,16.921-34.256,16.264-48.779,11.509c-2.658-0.872-6.549-2.124-6.549-8.382V80.81
				c0-2.851,2.441-5.829,6.103-4.323c9.538,3.923,27.333,9.538,31.685-0.964c5.927-14.309-20.338-20.149-28.918-29.125
				c-7.956-8.322-9.247-17.655-6.55-28.16c3.212-12.5,19.13-23.059,44.271-15.936c4.027,1.277,5.348,2.389,5.348,8.507v4.934
				c0,3.269-3.343,5.256-6.906,3.891c-7.289-2.79-18.189-5.441-22.529,1.71c-4.646,7.661,0.455,14.807,13.42,20.438
				C277.225,49.037,289.486,62.309,279.934,84.007z"/>
		</g>
	</g>
	<defs>
		<filter id="Adobe_OpacityMaskFilter" filterUnits="userSpaceOnUse" x="0" y="0" width="679.193" height="98.43">
			
				<feColorMatrix  type="matrix" values="-1 0 0 0 1  0 -1 0 0 1  0 0 -1 0 1  0 0 0 1 0" color-interpolation-filters="sRGB" result="source"/>
		</filter>
	</defs>
	<mask maskUnits="userSpaceOnUse" x="0" y="0" width="679.193" height="98.43" id="SVGID_1_">
		<g filter="url(#Adobe_OpacityMaskFilter)">
			
				<image overflow="visible" width="684" height="104" xlink:href="A02AD31E3DCF82B4.jpg"  transform="matrix(1 0 0 1 -2.4033 -2.7852)">
			</image>
		</g>
	</mask>
	<g opacity="0.3" mask="url(#SVGID_1_)">
		<g>
			<path d="M44.246,92.02c0,2.752-2.251,5.005-5.005,5.005H29.024c-2.754,0-5.005-2.253-5.005-5.005V23.226
				c0-2.754-2.252-5.006-5.006-5.006H5.002C2.252,18.22,0,15.967,0,13.214V6.338c0-2.754,2.252-5.005,5.002-5.005h58.193
				c2.751,0,5.005,2.251,5.005,5.005v6.876c0,2.753-2.254,5.006-5.005,5.006H49.252c-2.754,0-5.006,2.252-5.006,5.006V92.02z"/>
			<path d="M124.459,97.024c-2.754,0-5.627-2.163-6.385-4.811l-3.78-13.156c-0.762-2.646-3.638-4.811-6.389-4.811h-12.97
				c-2.752,0-5.631,2.164-6.398,4.807l-3.824,13.165c-0.768,2.643-3.646,4.806-6.397,4.806H67.838c-2.752,0-4.312-2.143-3.463-4.763
				l28.008-86.56c0.848-2.618,3.793-4.761,6.547-4.761h4.785c2.751,0,5.701,2.141,6.552,4.758l28.127,86.566
				c0.851,2.617-0.705,4.76-3.459,4.76H124.459z M101.395,59.429c6.645,0,9.643-6.902,8.307-10.669l-8.307-22.848l-8.098,22.848
				C91.996,52.536,94.751,59.429,101.395,59.429z"/>
			<path d="M583.387,97.024c-2.751,0-5.627-2.163-6.385-4.811l-3.781-13.156c-0.761-2.646-3.637-4.811-6.389-4.811h-12.967
				c-2.754,0-5.633,2.164-6.4,4.807l-3.822,13.165c-0.767,2.643-3.648,4.806-6.4,4.806h-10.475c-2.754,0-4.312-2.143-3.465-4.763
				l28.008-86.56c0.848-2.618,3.795-4.761,6.546-4.761h4.786c2.754,0,5.701,2.141,6.552,4.758l28.13,86.566
				c0.85,2.617-0.705,4.76-3.459,4.76H583.387z M560.322,59.429c6.645,0,9.643-6.902,8.307-10.669l-8.307-22.848l-8.099,22.848
				C550.924,52.536,553.678,59.429,560.322,59.429z"/>
			<path d="M212.43,31.179c0,4.188-0.634,8.205-1.898,12.043c-1.264,3.84-3.349,7.222-6.251,10.145
				c-2.9,2.925-6.719,5.26-11.454,7.004c-4.734,1.744-10.591,2.619-17.574,2.619l0,0c-2.555,0-4.646,2.251-4.646,5.005v5.166
				c0,2.754,0,7.259,0,10.012v8.847c0,2.752-2.251,5.005-5.005,5.005h-10.282c-2.751,0-5.003-2.253-5.003-5.005V6.338
				c0-2.754,2.252-5.005,5.003-5.005h16.566c22.559,0,29.102,5.399,32.002,7.952c2.902,2.552,5.053,5.672,6.447,9.36
				C211.73,22.333,212.43,26.512,212.43,31.179z M170.606,41.359c0,2.752,0.898,5.004,1.996,5.004c1.097,0,4.235-0.252,6.968-0.563
				c0,0,5.054-0.57,7.956-2.84c2.899-2.267,4.352-5.954,4.352-11.061c0-4.756-1.3-8.269-3.894-10.538
				c-2.596-2.268-6.665-3.402-12.206-3.402h-0.166c-2.755,0-5.006,2.252-5.006,5.004v3.208c0,2.754,0,6.118,0,7.477
				c0,1.361,0,4.727,0,7.479V41.359z"/>
			<path d="M335.613,92.02c0,2.752-2.252,5.005-5.003,5.005h-10.216c-2.752,0-5.006-2.253-5.006-5.005V23.226
				c0-2.754-2.255-5.006-5.006-5.006h-14.011c-2.751,0-5.006-2.253-5.006-5.006V6.338c0-2.754,2.255-5.005,5.006-5.005h58.192
				c2.754,0,5.005,2.251,5.005,5.005v6.876c0,2.753-2.251,5.006-5.005,5.006h-13.946c-2.751,0-5.005,2.252-5.005,5.006V92.02z"/>
			<path d="M399.004,60.304c-2.43,0-4.416,2.253-4.416,5.006v26.71c0,2.752-2.255,5.005-5.006,5.005H379.3
				c-2.751,0-5.005-2.253-5.005-5.005V6.338c0-2.754,2.254-5.005,5.005-5.005h16.174c13.562,0,26.318,2.367,32.165,7.102
				c5.848,4.735,8.771,11.922,8.771,21.566c0,3.272-0.438,6.239-1.309,8.901c-0.875,2.662-2.041,5.029-3.501,7.103
				c-1.463,2.072-3.144,3.884-5.041,5.431c-1.897,1.55-3.896,2.847-5.99,3.895c4.845,7.768,17.464,37.096,17.464,37.096
				c1.089,2.529-0.273,4.598-3.024,4.598h-12.506c-2.754,0-5.812-2.104-6.796-4.674l-10.493-27.372
				C404.229,62.407,401.434,60.304,399.004,60.304z M394.588,38.807c0,2.753,1.233,5.006,2.748,5.006c1.51,0,4.984-0.262,7.718-0.58
				c0,0,4.692-0.544,7.141-2.793c2.441-2.245,3.664-5.551,3.664-9.915c0-4.539-1.309-7.766-3.926-9.688
				c-2.62-1.921-6.677-2.879-12.177-2.879h-0.166c-2.751,0-5.002,2.252-5.002,5.004V38.807z"/>
			<path d="M513.84,92.02c0,2.752-2.252,5.005-5.004,5.005h-45.103c-2.751,0-5.005-2.253-5.005-5.005V6.338
				c0-2.754,2.254-5.005,5.005-5.005h45.103c2.752,0,5.004,2.251,5.004,5.005v6.614c0,2.753-2.252,5.006-5.004,5.006h-24.81
				c-2.755,0-5.006,2.252-5.006,5.004v11c0,2.754,2.251,5.006,5.006,5.006h22.386c2.754,0,5.006,2.253,5.006,5.005v6.615
				c0,2.752-2.252,5.005-5.006,5.005h-22.386c-2.755,0-5.006,2.252-5.006,5.006v14.666c0,2.752,2.251,5.005,5.006,5.005h24.81
				c2.752,0,5.004,2.252,5.004,5.006V92.02z"/>
			<path d="M642.043,63.657c-2.379,0-5.481-1.932-6.9-4.291l-6.861-11.435c-1.418-2.36-2.575-2.039-2.575,0.713V92.02
				c0,2.752-2.251,5.005-5.005,5.005h-8.12c-2.754,0-5.005-2.253-5.005-5.005V6.338c0-2.754,2.251-5.005,5.005-5.005h7.599
				c2.752,0,6.029,2.006,7.281,4.458l13.202,25.887c1.252,2.452,3.34,2.474,4.64,0.046l13.916-25.979
				c1.3-2.428,4.613-4.412,7.367-4.412h7.602c2.752,0,5.006,2.251,5.006,5.005V92.02c0,2.752-2.254,5.005-5.006,5.005h-8.907
				c-2.751,0-5.003-2.253-5.003-5.005V48.774c0-2.751-1.291-3.158-2.869-0.904l-8.174,11.688
				C647.655,61.812,644.42,63.657,642.043,63.657z"/>
			<path d="M279.934,84.007c-7.45,16.921-34.256,16.264-48.779,11.509c-2.658-0.872-6.549-2.124-6.549-8.382V80.81
				c0-2.851,2.441-5.829,6.103-4.323c9.538,3.923,27.333,9.538,31.685-0.964c5.927-14.309-20.338-20.149-28.918-29.125
				c-7.956-8.322-9.247-17.655-6.55-28.16c3.212-12.5,19.13-23.059,44.271-15.936c4.027,1.277,5.348,2.389,5.348,8.507v4.934
				c0,3.269-3.343,5.256-6.906,3.891c-7.289-2.79-18.189-5.441-22.529,1.71c-4.646,7.661,0.455,14.807,13.42,20.438
				C277.225,49.037,289.486,62.309,279.934,84.007z"/>
		</g>
	</g>
</g>
</svg>
